# xmcd
#
# Track frame offsets:
#       150
#       20072
#       33254
#       61937
#       78516
#       110632
#       126890
#       144259
#       160045
#       173723
#       189558
#
# Disc length: 2823 seconds
#
# Revision: 1
# Processed by: cddbd v1.4PL0 Copyright (c) Steve Scherf et al.
# Submitted via: MusiCat 1.1
#
DISCID=8c0b050b
DTITLE=Eric Clapton - Time Pieces
DYEAR=1900
DGENRE=
TTITLE0=I Shot the Sherriff
TTITLE1=After Midnight
TTITLE2=Knockin' on Heavens door
TTITLE3=Wonderfull tonight
TTITLE4=Layla
TTITLE5=Cocaine
TTITLE6=Lay down Sally
TTITLE7=Willie and the Hand Jive
TTITLE8=Promises
TTITLE9=Swing low, Sweet chariot
TTITLE10=Let it grow
EXTD=0\n\n\n
EXTT0=
EXTT1=
EXTT2=
EXTT3=
EXTT4=
EXTT5=
EXTT6=
EXTT7=
EXTT8=
EXTT9=
EXTT10=
PLAYORDER=
